<?xml version="1.0" encoding="utf-8"?>
<!-- Generator: Adobe Illustrator 17.0.0, SVG Export Plug-In . SVG Version: 6.00 Build 0)  -->
<!DOCTYPE svg PUBLIC "-//W3C//DTD SVG 1.1//EN" "http://www.w3.org/Graphics/SVG/1.1/DTD/svg11.dtd">
<svg version="1.1" id="Camada_1" xmlns="http://www.w3.org/2000/svg" xmlns:xlink="http://www.w3.org/1999/xlink" x="0px" y="0px"
	 width="1200px" height="72px" viewBox="0 0 1200 72" style="enable-background:new 0 0 1200 72;" xml:space="preserve">
<style type="text/css">
	.s-parte1, .s-parte2{fill-rule:evenodd;clip-rule:evenodd;fill:#000CA8;}
	.risco, .engrenagem{fill-rule:evenodd;clip-rule:evenodd;fill:#FF0C00;}

<!--   .s-parte1{
      stroke: #000;
      fill: transparent;
      stroke-dasharray: 1224;
      stroke-dashoffset: 0;
      animation: dash 2s linear;
      -o-animation: dash 2s linear;
      -moz-animation: dash 2s linear;
      -webkit-animation: dash 2s linear;

  }

  @keyframes dash {
      from {
          stroke-dashoffset: 1224;
      }
      to {
          stroke-dashoffset: 0;
      }
  } -->

  @keyframes gira {
      to {
      transform: rotate(360deg);
      -o-transform: rotate(360deg);
      -moz-transform: rotate(360deg);
      -webkit-transform: rotate(360deg);
      }
  }

  @-webkit-keyframes gira {
      to {
      transform: rotate(360deg);
      -o-transform: rotate(360deg);
      -moz-transform: rotate(360deg);
      -webkit-transform: rotate(360deg);
      }
  }

  .engrenagem {
    animation: gira 1s linear infinite;
    -o-animation: gira 1s linear infinite;
    -moz-animation: gira 1s linear infinite;
    -webkit-animation: gira 1s linear infinite;
    transform-origin: 601.6px 35.9px;
    -o-transform-origin: 601.6px 35.9px;
    -moz-transform-origin: 601.6px 35.9px;
    -webkit-transform-origin: 601.6px 35.9px;
  }
</style>
<path class="s-parte1" d="M598.773,36.196c-2.922,5.885-5.595,11.556-7.396,14.723c-7.222,12.885-23.789,19.965-37.24,20.319
	c-1.416,0.071-2.903,0.071-4.461,0.071H2.161c-0.708,0-1.345-0.637-1.345-1.345v-1.841c0-0.708,0.637-1.345,1.345-1.345h116.558
	l0.071,0.071h430.958c21.523-0.708,33.914-7.009,42.904-27.541c0.447-1.027,0.943-2.068,1.463-3.117L598.773,36.196z"/>
<path class="engrenagem" d="M604.86,9.143c1.841,0.212,3.682,0.637,5.381,1.204l1.416-1.983c0.637-0.92,1.275-1.77,1.77-2.478
	c0.071-0.142,0.283-0.142,0.354-0.142c0.637,0.283,1.203,0.566,1.841,0.85c0.637,0.283,1.203,0.566,1.841,0.85
	c0.142,0.071,0.212,0.212,0.142,0.354c-0.212,0.85-0.496,1.841-0.85,2.903l-0.637,2.337c1.558,0.991,3.045,2.124,4.319,3.469
	l2.124-1.204c0.991-0.566,1.841-1.062,2.62-1.487c0.142-0.071,0.283-0.071,0.425,0.071c0.425,0.495,0.85,1.062,1.274,1.558
	c0.425,0.495,0.85,1.062,1.275,1.557c0.071,0.142,0.071,0.283,0,0.425c-0.566,0.637-1.275,1.416-1.983,2.266l-1.628,1.841
	c0.991,1.558,1.77,3.257,2.407,4.956l2.407-0.142c1.133-0.071,2.124-0.142,3.044-0.212c0.142,0,0.283,0.071,0.354,0.212
	c0.142,0.637,0.283,1.275,0.425,1.983c0.142,0.637,0.283,1.275,0.425,1.983c0,0.142-0.071,0.283-0.212,0.354
	c-0.779,0.354-1.699,0.708-2.761,1.204l-2.266,0.92c0.071,0.991,0.142,1.912,0.142,2.903c0,0.85-0.071,1.77-0.142,2.62l2.266,0.92
	c1.062,0.425,1.982,0.779,2.832,1.133c0.142,0.071,0.212,0.212,0.212,0.354c-0.142,0.637-0.283,1.275-0.425,1.983
	c-0.141,0.637-0.283,1.275-0.425,1.983c0,0.142-0.142,0.212-0.354,0.212c-0.85-0.071-1.841-0.071-3.044-0.142l-2.407-0.142
	c-0.637,1.77-1.416,3.469-2.407,5.027l1.628,1.77c0.779,0.85,1.416,1.558,2.053,2.266c0.071,0.142,0.142,0.283,0,0.425
	c-0.425,0.495-0.85,1.062-1.275,1.557c-0.425,0.496-0.85,1.062-1.274,1.558c-0.071,0.142-0.283,0.142-0.425,0.071
	c-0.779-0.425-1.628-0.92-2.69-1.416l-2.124-1.133c-1.274,1.275-2.761,2.478-4.319,3.469l0.708,2.337
	c0.354,1.133,0.637,2.053,0.85,2.903c0.071,0.142,0,0.283-0.141,0.354c-0.567,0.283-1.204,0.566-1.77,0.92
	c-0.566,0.283-1.203,0.566-1.77,0.92c-0.141,0.071-0.283,0-0.354-0.071c-0.496-0.708-1.133-1.487-1.77-2.478l-1.416-1.983
	c-1.699,0.637-3.54,1.062-5.381,1.275l-0.354,2.407c-0.212,1.133-0.354,2.124-0.496,2.974c0,0.141-0.142,0.283-0.283,0.283
	c-0.637,0-1.345,0-1.982,0c-0.637,0-1.345,0-1.983,0c-0.142,0-0.283-0.142-0.283-0.283c-0.142-0.85-0.354-1.841-0.566-2.974
	l-0.425-2.407c-1.841-0.212-3.682-0.567-5.452-1.133l-1.345,1.983c-0.637,0.92-1.204,1.77-1.7,2.478
	c-0.071,0.142-0.283,0.142-0.354,0.142c-0.637-0.283-1.204-0.567-1.841-0.85c-0.637-0.283-1.204-0.567-1.841-0.85
	c-0.142-0.071-0.212-0.212-0.142-0.354c0.212-0.85,0.496-1.841,0.779-2.903l0.637-2.336c-1.558-0.991-3.045-2.124-4.39-3.399
	L581,56.367c-0.991,0.567-1.841,1.062-2.62,1.487c-0.142,0.071-0.283,0.071-0.425-0.071c-0.425-0.496-0.85-1.062-1.275-1.558
	c-0.425-0.496-0.85-1.062-1.274-1.558c-0.071-0.142-0.071-0.283,0-0.425c0.566-0.637,1.203-1.416,1.982-2.266l1.558-1.841
	c-0.991-1.558-1.841-3.186-2.478-4.956l-2.407,0.142c-1.133,0.071-2.124,0.142-3.044,0.212c-0.142,0-0.283-0.071-0.354-0.212
	c-0.142-0.637-0.354-1.274-0.495-1.983c-0.142-0.637-0.354-1.274-0.496-1.982c0-0.142,0.071-0.283,0.212-0.354
	c0.779-0.354,1.699-0.779,2.761-1.204l2.195-0.991c-0.141-1.062-0.212-2.124-0.212-3.257c0-0.779,0-1.558,0.071-2.266l-2.266-0.92
	c-1.062-0.425-1.982-0.779-2.832-1.133c-0.142-0.071-0.212-0.212-0.212-0.354c0.142-0.637,0.283-1.345,0.425-1.983
	c0.142-0.637,0.283-1.345,0.425-1.983c0-0.141,0.142-0.283,0.354-0.212c0.85,0,1.912,0.071,3.045,0.142l2.407,0.071
	c0.566-1.77,1.345-3.469,2.337-5.027l-1.629-1.77c-0.779-0.85-1.487-1.558-2.053-2.195c-0.071-0.142-0.142-0.283,0-0.425
	c0.425-0.567,0.85-1.062,1.203-1.628c0.425-0.567,0.85-1.062,1.204-1.629c0.071-0.141,0.283-0.141,0.425-0.071
	c0.779,0.425,1.629,0.85,2.691,1.416l2.124,1.133c1.275-1.345,2.69-2.549,4.248-3.54l-0.708-2.337
	c-0.354-1.062-0.637-2.053-0.92-2.903c-0.071-0.142,0-0.283,0.142-0.354c0.567-0.283,1.204-0.637,1.77-0.92
	c0.567-0.283,1.204-0.637,1.77-0.92c0.142-0.071,0.283,0,0.425,0.071c0.495,0.708,1.133,1.487,1.841,2.407l1.416,1.912
	c1.912-0.708,3.965-1.204,6.018-1.416l0.425-2.407c0.212-1.133,0.354-2.124,0.496-2.974c0-0.142,0.141-0.283,0.283-0.283
	c0.637,0,1.345,0,1.982,0c0.637,0,1.345,0,1.983,0c0.142,0,0.283,0.141,0.283,0.283c0.142,0.85,0.283,1.841,0.495,2.974l0.425,2.407
	L604.86,9.143L604.86,9.143z M601.604,15.373c-11.328,0-20.532,9.204-20.532,20.532c0,11.328,9.203,20.532,20.532,20.532
	c11.328,0,20.532-9.203,20.532-20.532C622.135,24.577,612.932,15.373,601.604,15.373z"/>
<path class="s-parte2" d="M593.995,36.432c0.379-0.763,0.891-1.771,1.287-2.54l0.074-0.144c0.779-1.487,1.52-2.843,2.228-4.401
	c2.336-4.815,4.602-9.7,8.284-14.372c10.652-13.647,22.063-13.68,38.114-13.899V1.076l0,0h0.079l554.318,0
	c0.708,0,1.275,0.567,1.275,1.275v1.841c0,0.708-0.566,1.274-1.275,1.274H643.872l0.039,0c-4.481,0.002-6.609,0.164-6.68,0.164
	c-22.653,0.984-27.769,9.368-37.222,28.085h0.005c-0.418,0.827-0.953,1.899-1.363,2.724L593.995,36.432z"/>
<path class="risco" d="M602.112,34.1l8.576-0.2c0.054-0.001,0.068,0.058,0.03,0.132l-2.255,4.343
	c-0.038,0.074-0.114,0.135-0.169,0.136l-8.577,0.201c-0.055,0.001-0.068-0.058-0.03-0.133l2.255-4.343
	C601.981,34.162,602.057,34.101,602.112,34.1L602.112,34.1z"/>
<path class="risco" d="M605.732,26.907l12.436-0.29c0.079-0.001,0.113,0.057,0.074,0.131l-2.254,4.344
	c-0.039,0.074-0.135,0.135-0.214,0.137l-12.435,0.29c-0.079,0.002-0.113-0.057-0.074-0.13l2.255-4.344
	C605.557,26.971,605.653,26.91,605.732,26.907L605.732,26.907z"/>
<path class="risco" d="M598.668,40.898l12.435-0.29c0.079-0.002,0.112,0.056,0.074,0.13l-2.255,4.344
	c-0.038,0.074-0.134,0.135-0.213,0.137l-12.436,0.29c-0.079,0.001-0.113-0.057-0.074-0.131l2.255-4.343
	C598.492,40.961,598.587,40.899,598.668,40.898L598.668,40.898z"/>
</svg>
